# xmcd
# 
# Track frame offsets:
#     150
#     4975
#     29017
#     51562
#     72550
#     90337
#     107070
#     125812
#     130532
#     156052
#     187950
#     210667
#     220497
# 
# Disc length: 3151
# 
# Revision: 4
# Processed by: cddbd v1.5.2PL0 Copyright (c) Steve Scherf et al.
# Submitted via: BonkEnc v1.0.6
# 
DISCID=c00c4d0d
DTITLE=Char - flashback memories
DYEAR=1991
DGENRE=Rock
TTITLE0=RUSSIANDRIX I
TTITLE1=XQZ me
TTITLE2=ROOM NO.7
TTITLE3=BLACK SHOES
TTITLE4=DAYS WENT BY
TTITLE5=LOST SCAT
TTITLE6=2918
TTITLE7=RUSSIANDRIX II
TTITLE8=FLASHBACK MEMORIES
TTITLE9=FRIDAY MORNING
TTITLE10=ALL AROUND ME
TTITLE11=RUSSIANDRIX III
TTITLE12=FEEL THE GROOVE
EXTD=YEAR: 1991
EXTT0=
EXTT1=
EXTT2=
EXTT3=
EXTT4=
EXTT5=
EXTT6=
EXTT7=
EXTT8=
EXTT9=
EXTT10=
EXTT11=
EXTT12=
PLAYORDER=
